<?xml version="1.0" encoding="utf-8"?>
<!-- Generator: Adobe Illustrator 27.2.0, SVG Export Plug-In . SVG Version: 6.00 Build 0)  -->
<svg version="1.1" xmlns="http://www.w3.org/2000/svg" xmlns:xlink="http://www.w3.org/1999/xlink" x="0px" y="0px"
	 viewBox="0 0 245 72" style="enable-background:new 0 0 245 72;" xml:space="preserve">
<style type="text/css">
	.st0{display:none;fill-rule:evenodd;clip-rule:evenodd;fill:none;stroke:#000000;stroke-miterlimit:10;}
	.st1{display:none;}
	.st2{display:inline;}
	.st3{fill-rule:evenodd;clip-rule:evenodd;fill:#0030F9;}
	.st4{fill:#0030F9;}
	.st5{fill:#1E1E1E;}
	.st6{fill:none;stroke:#0A0A0A;stroke-width:2;stroke-miterlimit:10;}
	.st7{opacity:0;fill-rule:evenodd;clip-rule:evenodd;fill:none;stroke:#FFFFFF;stroke-width:0.5;stroke-miterlimit:10;}
</style>
<g id="Background_xA0_Image_1_">
</g>
<g id="Group_6_copy_1_">
	<g id="Group_4_5_">
	</g>
	<g id="Group_4_copy_5_">
	</g>
	<g id="Group_5_1_">
	</g>
	<g id="Group_1_7_">
		<g id="jobRinger_3_">
		</g>
	</g>
</g>
<g id="Group_6_copy_2_1_">
	<g id="Group_4_4_">
	</g>
	<g id="Group_4_copy_4_">
	</g>
	<g id="Group_5_copy_1_">
	</g>
	<g id="Group_1_6_">
		<g id="jobRinger_2_">
		</g>
	</g>
</g>
<g id="Group_6_copy_5_1_">
	<g id="Group_1_5_">
		<g id="Group_6_1_">
			<g id="jobRinger_1_">
			</g>
		</g>
		<g id="Group_6_copy_6_1_">
		</g>
	</g>
</g>
<g id="Group_6_copy_4_1_">
	<g id="Group_4_3_">
	</g>
	<g id="Group_4_copy_3_">
	</g>
	<g id="Group_1_4_">
		<g id="jobRinger">
		</g>
	</g>
</g>
<g id="Layer_24">
	<circle class="st0" cx="429.69" cy="-90.29" r="15.08"/>
	<g class="st1">
		<path class="st2" d="M430.6-88.53h-4.21v7.25h-2.38v-17.93h5.94c2.02,0,3.57,0.46,4.66,1.38c1.09,0.92,1.63,2.26,1.63,4.02
			c0,1.12-0.3,2.09-0.9,2.92c-0.6,0.83-1.44,1.45-2.52,1.86l4.21,7.61v0.15h-2.54L430.6-88.53z M426.39-90.46h3.63
			c1.17,0,2.11-0.3,2.8-0.91c0.69-0.61,1.04-1.42,1.04-2.44c0-1.11-0.33-1.96-0.99-2.55s-1.62-0.89-2.86-0.9h-3.62V-90.46z"/>
	</g>
	<g>
		<g>
			<g id="job">
				<g>
					<path class="st3" d="M23.01,40.79c0,1.08-0.23,1.93-0.7,2.56c-0.47,0.63-1.17,1.05-2.1,1.26L22,49.57
						c2.37-0.27,4.09-1.11,5.15-2.52c1.07-1.41,1.6-3.55,1.6-6.42V22.43h-5.74V40.79z M42.57,22.06c-2.96,0-5.36,0.88-7.21,2.64
						c-1.85,1.76-2.77,4.04-2.77,6.85c0,2.79,0.92,5.06,2.77,6.81c1.85,1.75,4.25,2.62,7.21,2.62c2.98,0,5.4-0.88,7.26-2.63
						c1.86-1.75,2.78-4.02,2.78-6.8c0-2.79-0.93-5.07-2.79-6.84C47.96,22.95,45.54,22.06,42.57,22.06z M45.55,35.27
						c-0.74,0.93-1.73,1.39-2.98,1.39c-1.23,0-2.22-0.46-2.97-1.39c-0.75-0.93-1.12-2.17-1.12-3.72c0-1.55,0.38-2.79,1.13-3.74
						c0.75-0.94,1.74-1.41,2.96-1.41c1.23,0,2.22,0.47,2.97,1.41c0.75,0.94,1.12,2.19,1.12,3.74C46.66,33.1,46.29,34.34,45.55,35.27
						z M73.53,24.59c-1.54-1.71-3.62-2.56-6.26-2.56c-1.02,0-1.96,0.14-2.8,0.42c-0.84,0.28-1.63,0.72-2.34,1.31v-9.99h-5.7v25.82
						c1.6,0.47,3.1,0.83,4.51,1.06c1.41,0.23,2.74,0.35,4.01,0.35c3.42,0,6.08-0.83,8-2.5c1.92-1.66,2.88-3.98,2.88-6.93
						C75.84,28.62,75.07,26.3,73.53,24.59z M68.57,35.23c-0.81,0.9-1.92,1.35-3.31,1.35c-0.56,0-1.1-0.1-1.62-0.29
						c-0.52-0.19-1.02-0.49-1.51-0.88v-7.68c0.5-0.4,1.01-0.7,1.54-0.9c0.52-0.2,1.06-0.31,1.59-0.31c1.41,0,2.51,0.45,3.32,1.34
						c0.81,0.9,1.21,2.13,1.21,3.69C69.79,33.1,69.38,34.33,68.57,35.23z"/>
				</g>
			</g>
			<g id="Rectangle_5">
				<g>
					<rect x="22.98" y="15.52" class="st4" width="5.69" height="4.27"/>
				</g>
			</g>
			<g id="Rectangle_5_copy_2">
				<g>
					<rect x="99.51" y="15.52" width="5.69" height="4.27"/>
				</g>
			</g>
			<g>
				<g id="Ellipse_2_copy_4_">
					<g>
						<path class="st4" d="M197.93,10.48c-2.04,0-3.69,1.65-3.69,3.69c0,2.04,1.65,3.69,3.69,3.69c2.04,0,3.69-1.65,3.69-3.69
							C201.62,12.13,199.97,10.48,197.93,10.48z"/>
					</g>
				</g>
				<polygon class="st4" points="203.32,16.22 199.96,19.58 205.18,24.8 196.83,33.15 200.18,36.5 211.89,24.8 				"/>
			</g>
			<g>
				<g id="Ellipse_2_copy_1_">
					<g>
						<path d="M210.83,10.48c-2.04,0-3.69,1.65-3.69,3.69c0,2.04,1.65,3.69,3.69,3.69c2.04,0,3.69-1.65,3.69-3.69
							C214.52,12.13,212.87,10.48,210.83,10.48z"/>
					</g>
				</g>
				<polygon points="216.22,16.22 212.86,19.58 218.08,24.8 209.73,33.15 213.08,36.5 224.79,24.8 				"/>
			</g>
			<g>
				<path d="M79.73,40.64V20.55h7.42c2.73,0,4.74,0.47,6.04,1.42c1.3,0.95,1.95,2.42,1.95,4.41c0,1.11-0.29,2.06-0.86,2.85
					c-0.57,0.79-1.45,1.46-2.64,2c0.5,0.18,0.94,0.49,1.34,0.91c0.4,0.43,0.74,0.96,1.04,1.62l3.2,6.88h-5.67l-2.55-5.79
					c-0.41-0.92-0.88-1.55-1.41-1.9c-0.53-0.34-1.27-0.52-2.24-0.52c-0.08,0-0.18,0.01-0.3,0.01c-0.12,0.01-0.22,0.01-0.29,0.01
					v8.17H79.73z M87.18,28.79c0.93,0,1.62-0.19,2.07-0.58c0.45-0.39,0.68-0.98,0.68-1.77c0-0.76-0.24-1.33-0.71-1.73
					c-0.47-0.4-1.16-0.6-2.05-0.6h-2.41v4.68H87.18z"/>
				<path d="M99.52,40.64V22.43h5.74v18.21H99.52z"/>
				<path d="M110.21,40.64V22.43h5.7v2.29c0.9-0.92,1.84-1.59,2.82-2.02c0.99-0.42,2.11-0.63,3.38-0.63c2,0,3.53,0.6,4.59,1.82
					c1.06,1.21,1.59,2.95,1.59,5.23v11.53h-5.74V29.9c0-1.29-0.21-2.24-0.62-2.84c-0.42-0.6-1.07-0.9-1.95-0.9
					c-0.79,0-1.53,0.24-2.22,0.73c-0.68,0.49-1.3,1.2-1.85,2.15v11.6H110.21z"/>
				<path d="M137.2,34.66c-1.61-0.47-2.81-1.2-3.6-2.17c-0.79-0.97-1.18-2.22-1.18-3.73c0-2.06,0.81-3.63,2.44-4.72
					c1.63-1.08,3.98-1.62,7.06-1.62h9.25v3.8h-2.57c0.29,0.46,0.51,0.94,0.65,1.45c0.14,0.51,0.21,1.06,0.21,1.66
					c0,1.64-0.48,2.95-1.45,3.93c-0.97,0.98-2.42,1.64-4.37,1.97c-0.46,0.09-1.07,0.17-1.82,0.23c-1.51,0.14-2.26,0.55-2.26,1.23
					c0,0.65,1.04,1.08,3.11,1.29c0.78,0.08,1.41,0.15,1.9,0.21c1.94,0.26,3.43,0.84,4.44,1.75c1.02,0.91,1.53,2.11,1.53,3.61
					c0,1.97-0.82,3.47-2.46,4.49c-1.64,1.02-4.06,1.53-7.26,1.53c-2.94,0-5.25-0.47-6.91-1.42c-1.66-0.95-2.5-2.26-2.5-3.94
					c0-1.06,0.41-1.98,1.24-2.75c0.83-0.77,2.03-1.36,3.6-1.77c-0.7-0.22-1.23-0.51-1.58-0.88c-0.35-0.37-0.53-0.83-0.53-1.36
					c0-0.7,0.25-1.29,0.76-1.75C135.41,35.24,136.18,34.89,137.2,34.66z M136.78,43.9c0,0.74,0.36,1.3,1.07,1.68
					c0.71,0.38,1.77,0.57,3.18,0.57c1.41,0,2.48-0.19,3.21-0.57c0.74-0.38,1.1-0.93,1.1-1.64c0-0.67-0.37-1.19-1.1-1.57
					c-0.74-0.38-1.77-0.57-3.1-0.57c-1.39,0-2.47,0.18-3.22,0.55C137.15,42.72,136.78,43.24,136.78,43.9z M141.02,25.92
					c-0.99,0-1.78,0.28-2.37,0.85c-0.59,0.57-0.89,1.32-0.89,2.26c0,0.94,0.3,1.69,0.89,2.26c0.6,0.57,1.39,0.85,2.37,0.85
					c0.99,0,1.78-0.28,2.37-0.85c0.6-0.57,0.89-1.32,0.89-2.26c0-0.93-0.3-1.69-0.89-2.26C142.79,26.21,142,25.92,141.02,25.92z"/>
				<path d="M171.96,38.64c-1.24,0.81-2.55,1.41-3.93,1.8c-1.38,0.39-2.84,0.59-4.41,0.59c-3.14,0-5.59-0.86-7.37-2.57
					c-1.78-1.72-2.67-4.09-2.67-7.13c0-2.8,0.87-5.05,2.61-6.73c1.74-1.68,4.06-2.53,6.95-2.53c2.85,0,5.11,0.91,6.76,2.74
					c1.65,1.82,2.48,4.34,2.48,7.54v0.19H159.5v0.08c0,1.45,0.49,2.59,1.48,3.43c0.99,0.84,2.34,1.26,4.05,1.26
					c1.15,0,2.3-0.2,3.45-0.61c1.15-0.41,2.31-1.02,3.47-1.82V38.64z M159.54,29.75l7.06-0.02c-0.1-1.18-0.46-2.1-1.07-2.77
					c-0.61-0.67-1.39-1-2.35-1c-0.99,0-1.8,0.33-2.45,1C160.09,27.63,159.7,28.56,159.54,29.75z"/>
				<path d="M176.38,40.64V21.75h5.95v5.06c1.01-1.91,1.98-3.28,2.91-4.11c0.93-0.83,1.94-1.25,3.05-1.25
					c0.54,0,1.12,0.11,1.72,0.34c0.6,0.23,1.28,0.58,2.02,1.06l-1.59,5.42c-0.6-0.46-1.15-0.8-1.65-1.02c-0.5-0.21-1-0.32-1.49-0.32
					c-1.13,0-2.14,0.5-3.04,1.49c-0.9,1-1.54,2.36-1.92,4.08v8.13H176.38z"/>
			</g>
		</g>
		<g>
			<path class="st5" d="M36.47,61.4v-8.3h1.31v8.3H36.47z"/>
			<path class="st5" d="M44.97,61.4h-1.29v-3.38c0-0.56-0.09-0.97-0.27-1.24c-0.18-0.26-0.45-0.39-0.81-0.39
				c-0.25,0-0.5,0.06-0.74,0.18c-0.25,0.12-0.47,0.29-0.66,0.5c-0.19,0.21-0.34,0.45-0.42,0.73v3.6h-1.29v-6.06h1.17v1.23
				c0.16-0.27,0.36-0.5,0.61-0.7c0.25-0.2,0.54-0.35,0.86-0.46c0.32-0.11,0.66-0.16,1.02-0.16c0.37,0,0.67,0.07,0.91,0.2
				c0.24,0.13,0.42,0.31,0.56,0.54c0.14,0.23,0.23,0.49,0.28,0.79c0.05,0.3,0.08,0.61,0.08,0.94V61.4z"/>
			<path class="st5" d="M46.08,58.38c0-0.58,0.12-1.11,0.36-1.58c0.24-0.47,0.56-0.85,0.98-1.13c0.41-0.28,0.89-0.42,1.43-0.42
				c0.47,0,0.89,0.12,1.27,0.36c0.38,0.24,0.67,0.54,0.88,0.9v-3.63h1.29v7.08c0,0.15,0.03,0.25,0.08,0.32
				c0.05,0.06,0.14,0.1,0.27,0.11v1.03c-0.24,0.04-0.43,0.06-0.56,0.06c-0.24,0-0.45-0.07-0.61-0.21c-0.17-0.14-0.26-0.31-0.26-0.5
				l-0.01-0.46c-0.23,0.39-0.55,0.69-0.95,0.91c-0.4,0.21-0.81,0.32-1.24,0.32c-0.42,0-0.81-0.08-1.16-0.24
				c-0.35-0.16-0.66-0.39-0.92-0.68c-0.26-0.29-0.46-0.63-0.61-1.01C46.15,59.21,46.08,58.81,46.08,58.38z M50.98,59.22v-1.58
				c-0.09-0.25-0.22-0.47-0.41-0.66c-0.19-0.2-0.41-0.35-0.64-0.47c-0.24-0.12-0.47-0.17-0.71-0.17c-0.27,0-0.52,0.06-0.74,0.17
				c-0.22,0.12-0.41,0.27-0.57,0.46c-0.16,0.19-0.28,0.41-0.37,0.66c-0.09,0.25-0.13,0.5-0.13,0.77c0,0.28,0.05,0.54,0.14,0.78
				c0.09,0.24,0.23,0.46,0.4,0.64c0.18,0.19,0.38,0.33,0.61,0.44c0.23,0.1,0.48,0.16,0.75,0.16c0.17,0,0.34-0.03,0.52-0.09
				c0.18-0.06,0.34-0.15,0.5-0.25c0.16-0.11,0.3-0.23,0.41-0.38C50.86,59.55,50.94,59.39,50.98,59.22z"/>
			<path class="st5" d="M53.9,54.29v-1.41h1.29v1.41H53.9z M53.9,61.4v-6.11h1.29v6.11H53.9z"/>
			<path class="st5" d="M56.29,59.63c0-0.39,0.11-0.72,0.33-1.01c0.22-0.29,0.53-0.51,0.92-0.67c0.39-0.16,0.84-0.24,1.36-0.24
				c0.27,0,0.55,0.02,0.84,0.06c0.28,0.04,0.54,0.1,0.75,0.19v-0.38c0-0.42-0.13-0.75-0.39-0.99c-0.26-0.24-0.63-0.36-1.11-0.36
				c-0.34,0-0.67,0.06-0.97,0.18c-0.3,0.12-0.63,0.29-0.97,0.51l-0.43-0.86c0.41-0.27,0.81-0.48,1.22-0.61
				c0.41-0.13,0.84-0.2,1.29-0.2c0.82,0,1.46,0.21,1.93,0.64c0.47,0.43,0.71,1.03,0.71,1.82v2.25c0,0.15,0.03,0.25,0.08,0.31
				c0.05,0.06,0.14,0.1,0.26,0.1v1.03c-0.12,0.02-0.22,0.04-0.32,0.05c-0.09,0.01-0.17,0.01-0.23,0.01c-0.27,0-0.48-0.07-0.62-0.2
				c-0.14-0.13-0.22-0.29-0.25-0.47l-0.03-0.35c-0.26,0.34-0.6,0.61-1.02,0.79c-0.41,0.19-0.83,0.28-1.25,0.28
				c-0.41,0-0.77-0.08-1.09-0.25c-0.32-0.17-0.57-0.39-0.75-0.68C56.38,60.31,56.29,59.99,56.29,59.63z M60.18,60
				c0.09-0.1,0.17-0.2,0.22-0.3c0.05-0.1,0.08-0.19,0.08-0.26v-0.69c-0.22-0.08-0.45-0.15-0.69-0.19c-0.24-0.04-0.48-0.06-0.71-0.06
				c-0.47,0-0.85,0.09-1.14,0.28s-0.44,0.44-0.44,0.76c0,0.18,0.05,0.34,0.15,0.51c0.1,0.16,0.24,0.29,0.42,0.39
				c0.18,0.1,0.41,0.15,0.68,0.15c0.28,0,0.55-0.05,0.81-0.16C59.82,60.31,60.02,60.17,60.18,60z"/>
			<path class="st5" d="M62.53,55.7l0.25-1.38h-0.4v-1.45h1.25v1.46l-0.37,1.37H62.53z"/>
			<path class="st5" d="M66.37,61.52c-0.51,0-1-0.08-1.46-0.25c-0.46-0.17-0.85-0.42-1.18-0.75l0.48-0.86
				c0.35,0.31,0.7,0.54,1.06,0.68c0.35,0.14,0.71,0.21,1.06,0.21c0.36,0,0.65-0.07,0.88-0.2c0.23-0.13,0.34-0.33,0.34-0.59
				c0-0.19-0.06-0.34-0.18-0.43c-0.12-0.09-0.29-0.17-0.51-0.24c-0.22-0.07-0.49-0.15-0.8-0.23c-0.44-0.13-0.8-0.27-1.1-0.41
				c-0.3-0.14-0.52-0.32-0.67-0.53c-0.15-0.21-0.22-0.47-0.22-0.8c0-0.39,0.1-0.73,0.3-1.01c0.2-0.28,0.48-0.49,0.85-0.64
				c0.36-0.15,0.78-0.22,1.26-0.22c0.44,0,0.85,0.07,1.23,0.2c0.38,0.14,0.71,0.35,1,0.64l-0.55,0.85
				c-0.27-0.25-0.55-0.43-0.84-0.55c-0.28-0.12-0.59-0.18-0.92-0.18c-0.19,0-0.37,0.02-0.54,0.06c-0.17,0.04-0.31,0.12-0.43,0.23
				c-0.11,0.11-0.17,0.27-0.17,0.47c0,0.16,0.05,0.29,0.14,0.39c0.09,0.1,0.23,0.19,0.42,0.25c0.19,0.07,0.42,0.15,0.69,0.23
				C67,58,67.4,58.13,67.74,58.27c0.33,0.13,0.59,0.31,0.78,0.52c0.18,0.21,0.27,0.5,0.27,0.87c0,0.59-0.22,1.04-0.66,1.37
				C67.69,61.36,67.1,61.52,66.37,61.52z"/>
			<path class="st4" d="M72.16,59.87c0.12,0.09,0.32,0.19,0.57,0.27c0.26,0.09,0.56,0.13,0.91,0.13c0.34,0,0.62-0.06,0.84-0.17
				c0.21-0.11,0.38-0.28,0.49-0.51c0.11-0.23,0.19-0.52,0.23-0.87c0.04-0.35,0.06-0.78,0.06-1.26v-4.36h1.32v4.18
				c0,0.61-0.03,1.17-0.1,1.68c-0.07,0.51-0.2,0.95-0.39,1.33c-0.19,0.37-0.48,0.66-0.87,0.86c-0.39,0.2-0.9,0.3-1.55,0.3
				c-0.38,0-0.72-0.04-1.02-0.13c-0.3-0.09-0.57-0.21-0.82-0.39L72.16,59.87z"/>
			<path class="st4" d="M80.85,61.52c-0.48,0-0.92-0.08-1.3-0.25c-0.38-0.17-0.71-0.4-0.99-0.69c-0.28-0.29-0.49-0.63-0.64-1
				c-0.15-0.37-0.22-0.77-0.22-1.2c0-0.42,0.07-0.83,0.22-1.2c0.15-0.38,0.36-0.71,0.64-1c0.28-0.29,0.61-0.52,0.99-0.68
				c0.39-0.17,0.82-0.25,1.29-0.25c0.47,0,0.91,0.08,1.29,0.25c0.39,0.17,0.72,0.39,0.99,0.68c0.28,0.29,0.49,0.62,0.64,1
				c0.15,0.38,0.22,0.78,0.22,1.2c0,0.42-0.07,0.82-0.22,1.2c-0.15,0.37-0.36,0.71-0.64,1c-0.28,0.29-0.61,0.52-0.99,0.69
				C81.75,61.44,81.32,61.52,80.85,61.52z M79.02,58.39c0,0.38,0.08,0.73,0.25,1.04c0.16,0.31,0.38,0.55,0.65,0.73
				c0.27,0.18,0.58,0.26,0.92,0.26c0.33,0,0.64-0.09,0.92-0.27c0.28-0.18,0.5-0.43,0.66-0.74c0.16-0.31,0.25-0.65,0.25-1.03
				c0-0.38-0.08-0.73-0.25-1.04c-0.16-0.31-0.38-0.55-0.66-0.73c-0.28-0.18-0.58-0.27-0.92-0.27c-0.34,0-0.65,0.09-0.92,0.28
				c-0.27,0.18-0.49,0.43-0.65,0.73C79.1,57.66,79.02,58,79.02,58.39z"/>
			<path class="st4" d="M88.43,61.52c-0.47,0-0.89-0.11-1.27-0.33c-0.38-0.22-0.68-0.52-0.89-0.89v1.11h-1.13v-8.53h1.29v3.63
				c0.24-0.39,0.54-0.7,0.91-0.92c0.36-0.23,0.79-0.34,1.28-0.34c0.4,0,0.77,0.08,1.11,0.25s0.62,0.4,0.86,0.69
				c0.24,0.29,0.42,0.63,0.55,1.01c0.13,0.38,0.19,0.78,0.19,1.2s-0.07,0.83-0.22,1.2c-0.14,0.38-0.35,0.71-0.61,1
				c-0.26,0.29-0.57,0.51-0.92,0.67C89.22,61.44,88.84,61.52,88.43,61.52z M88.09,60.42c0.28,0,0.54-0.06,0.77-0.17
				c0.23-0.11,0.44-0.26,0.61-0.44c0.17-0.18,0.3-0.4,0.39-0.65c0.09-0.25,0.13-0.5,0.13-0.76c0-0.36-0.08-0.7-0.23-1.01
				c-0.15-0.31-0.36-0.57-0.64-0.76c-0.27-0.19-0.59-0.29-0.95-0.29c-0.26,0-0.5,0.06-0.72,0.18c-0.23,0.12-0.43,0.28-0.6,0.47
				c-0.18,0.2-0.32,0.41-0.44,0.65v1.59c0.05,0.18,0.13,0.34,0.25,0.48s0.25,0.26,0.41,0.37c0.16,0.1,0.32,0.19,0.5,0.25
				C87.75,60.39,87.93,60.42,88.09,60.42z"/>
			<path class="st5" d="M95.52,61.4v-8.3H99c0.37,0,0.72,0.08,1.03,0.23c0.31,0.16,0.58,0.36,0.82,0.62
				c0.23,0.26,0.41,0.55,0.54,0.86c0.12,0.32,0.19,0.65,0.19,0.98c0,0.46-0.1,0.9-0.31,1.31c-0.21,0.42-0.5,0.75-0.88,1.01
				c-0.38,0.26-0.82,0.39-1.31,0.39h-2.24v2.89H95.52z M96.83,57.36h2.16c0.25,0,0.47-0.07,0.65-0.2c0.19-0.14,0.33-0.32,0.44-0.55
				c0.11-0.23,0.16-0.5,0.16-0.79c0-0.3-0.06-0.57-0.19-0.81c-0.12-0.23-0.29-0.41-0.48-0.54c-0.2-0.13-0.41-0.19-0.65-0.19h-2.09
				V57.36z"/>
			<path class="st5" d="M105.26,61.52c-0.48,0-0.92-0.08-1.3-0.25c-0.38-0.17-0.71-0.4-0.99-0.69c-0.28-0.29-0.49-0.63-0.64-1
				c-0.15-0.37-0.22-0.77-0.22-1.2c0-0.42,0.07-0.83,0.22-1.2c0.15-0.38,0.36-0.71,0.64-1c0.28-0.29,0.61-0.52,0.99-0.68
				c0.39-0.17,0.82-0.25,1.29-0.25c0.47,0,0.91,0.08,1.29,0.25c0.39,0.17,0.72,0.39,0.99,0.68c0.28,0.29,0.49,0.62,0.64,1
				c0.15,0.38,0.22,0.78,0.22,1.2c0,0.42-0.07,0.82-0.22,1.2c-0.15,0.37-0.36,0.71-0.64,1c-0.28,0.29-0.61,0.52-0.99,0.69
				C106.17,61.44,105.74,61.52,105.26,61.52z M103.44,58.39c0,0.38,0.08,0.73,0.25,1.04c0.16,0.31,0.38,0.55,0.65,0.73
				c0.27,0.18,0.58,0.26,0.92,0.26c0.33,0,0.64-0.09,0.92-0.27c0.28-0.18,0.5-0.43,0.66-0.74c0.16-0.31,0.25-0.65,0.25-1.03
				c0-0.38-0.08-0.73-0.25-1.04c-0.16-0.31-0.38-0.55-0.66-0.73c-0.28-0.18-0.58-0.27-0.92-0.27c-0.34,0-0.65,0.09-0.92,0.28
				c-0.27,0.18-0.49,0.43-0.65,0.73C103.52,57.66,103.44,58,103.44,58.39z"/>
			<path class="st5" d="M112.99,56.4c-0.5,0.01-0.94,0.12-1.33,0.34c-0.39,0.22-0.66,0.53-0.82,0.92v3.74h-1.29v-6.06h1.19v1.32
				c0.21-0.42,0.49-0.76,0.83-1.01c0.34-0.25,0.7-0.39,1.09-0.41c0.08,0,0.14,0,0.19,0c0.05,0,0.1,0,0.13,0.01V56.4z"/>
			<path class="st5" d="M117.32,61.11c-0.11,0.05-0.25,0.11-0.41,0.18c-0.16,0.06-0.35,0.12-0.56,0.16
				c-0.21,0.05-0.42,0.07-0.64,0.07c-0.26,0-0.51-0.05-0.74-0.14c-0.23-0.09-0.41-0.24-0.54-0.45c-0.14-0.21-0.2-0.47-0.2-0.8v-3.8
				h-0.81v-0.99h0.81v-2.01h1.28v2.01h1.33v0.99h-1.33v3.39c0.02,0.21,0.08,0.36,0.2,0.46c0.12,0.1,0.27,0.15,0.45,0.15
				c0.18,0,0.35-0.03,0.51-0.09c0.16-0.06,0.28-0.11,0.36-0.15L117.32,61.11z"/>
			<path class="st5" d="M117.77,59.63c0-0.39,0.11-0.72,0.33-1.01c0.22-0.29,0.53-0.51,0.92-0.67c0.39-0.16,0.84-0.24,1.36-0.24
				c0.27,0,0.55,0.02,0.84,0.06c0.28,0.04,0.54,0.1,0.75,0.19v-0.38c0-0.42-0.13-0.75-0.39-0.99c-0.26-0.24-0.63-0.36-1.11-0.36
				c-0.34,0-0.67,0.06-0.97,0.18c-0.3,0.12-0.63,0.29-0.97,0.51l-0.43-0.86c0.4-0.27,0.81-0.48,1.22-0.61
				c0.41-0.13,0.84-0.2,1.29-0.2c0.82,0,1.46,0.21,1.93,0.64c0.47,0.43,0.71,1.03,0.71,1.82v2.25c0,0.15,0.03,0.25,0.08,0.31
				c0.05,0.06,0.14,0.1,0.26,0.1v1.03c-0.12,0.02-0.22,0.04-0.32,0.05c-0.09,0.01-0.17,0.01-0.23,0.01c-0.27,0-0.48-0.07-0.62-0.2
				c-0.14-0.13-0.22-0.29-0.25-0.47l-0.04-0.35c-0.26,0.34-0.6,0.61-1.02,0.79c-0.41,0.19-0.83,0.28-1.25,0.28
				c-0.41,0-0.77-0.08-1.09-0.25c-0.32-0.17-0.57-0.39-0.75-0.68C117.85,60.31,117.77,59.99,117.77,59.63z M121.66,60
				c0.09-0.1,0.17-0.2,0.22-0.3c0.05-0.1,0.08-0.19,0.08-0.26v-0.69c-0.22-0.08-0.45-0.15-0.69-0.19c-0.24-0.04-0.48-0.06-0.71-0.06
				c-0.47,0-0.85,0.09-1.14,0.28c-0.29,0.18-0.44,0.44-0.44,0.76c0,0.18,0.05,0.34,0.15,0.51c0.1,0.16,0.24,0.29,0.42,0.39
				c0.18,0.1,0.41,0.15,0.68,0.15c0.28,0,0.55-0.05,0.81-0.16C121.29,60.31,121.5,60.17,121.66,60z"/>
			<path class="st5" d="M124.81,52.87h1.29v6.79c0,0.31,0.05,0.51,0.14,0.6s0.21,0.13,0.35,0.13c0.16,0,0.3-0.02,0.44-0.05
				c0.14-0.03,0.26-0.07,0.36-0.12l0.19,1.02c-0.19,0.08-0.41,0.14-0.67,0.2c-0.26,0.05-0.49,0.08-0.69,0.08
				c-0.44,0-0.78-0.12-1.03-0.37c-0.25-0.25-0.37-0.59-0.37-1.03V52.87z"/>
		</g>
		<g>
			<line class="st6" x1="31.33" y1="47.73" x2="80.28" y2="47.73"/>
			<line class="st6" x1="80.28" y1="47.73" x2="129.23" y2="47.73"/>
		</g>
	</g>
	<rect class="st7" width="245" height="72"/>
</g>
</svg>
